<mxfile host="app.diagrams.net" modified="2023-04-30T16:56:42.013Z" agent="Mozilla/5.0 (Windows NT 10.0; Win64; x64) AppleWebKit/537.36 (KHTML, like Gecko) Chrome/112.0.0.0 Safari/537.36 Edg/112.0.1722.64" etag="YOvf8IokFIBIOIp9N2me" version="21.2.3" type="github">
  <diagram id="C5RBs43oDa-KdzZeNtuy" name="Page-1">
    <mxGraphModel dx="1105" dy="621" grid="1" gridSize="10" guides="1" tooltips="1" connect="1" arrows="1" fold="1" page="1" pageScale="1" pageWidth="1169" pageHeight="827" math="0" shadow="0">
      <root>
        <mxCell id="WIyWlLk6GJQsqaUBKTNV-0" />
        <mxCell id="WIyWlLk6GJQsqaUBKTNV-1" parent="WIyWlLk6GJQsqaUBKTNV-0" />
        <mxCell id="Zs0k1_6YK3kXZUN5zw4k-58" value="MSSV" style="ellipse;whiteSpace=wrap;html=1;" parent="WIyWlLk6GJQsqaUBKTNV-1" vertex="1">
          <mxGeometry x="130" y="250" width="85" height="50" as="geometry" />
        </mxCell>
        <mxCell id="Zs0k1_6YK3kXZUN5zw4k-59" value="Ho_Ten" style="ellipse;whiteSpace=wrap;html=1;" parent="WIyWlLk6GJQsqaUBKTNV-1" vertex="1">
          <mxGeometry x="100" y="200" width="85" height="50" as="geometry" />
        </mxCell>
        <mxCell id="Zs0k1_6YK3kXZUN5zw4k-60" value="Ngay_Sinh" style="ellipse;whiteSpace=wrap;html=1;" parent="WIyWlLk6GJQsqaUBKTNV-1" vertex="1">
          <mxGeometry x="130" y="150" width="85" height="50" as="geometry" />
        </mxCell>
        <mxCell id="Zs0k1_6YK3kXZUN5zw4k-61" value="Que_quan" style="ellipse;whiteSpace=wrap;html=1;" parent="WIyWlLk6GJQsqaUBKTNV-1" vertex="1">
          <mxGeometry x="277.5" y="100" width="85" height="50" as="geometry" />
        </mxCell>
        <mxCell id="Zs0k1_6YK3kXZUN5zw4k-62" value="Email" style="ellipse;whiteSpace=wrap;html=1;" parent="WIyWlLk6GJQsqaUBKTNV-1" vertex="1">
          <mxGeometry x="430" y="150" width="85" height="50" as="geometry" />
        </mxCell>
        <mxCell id="Zs0k1_6YK3kXZUN5zw4k-63" value="SDT" style="ellipse;whiteSpace=wrap;html=1;" parent="WIyWlLk6GJQsqaUBKTNV-1" vertex="1">
          <mxGeometry x="460" y="200" width="85" height="50" as="geometry" />
        </mxCell>
        <mxCell id="m1X8HX1gUMQzAYCHZsaK-58" style="edgeStyle=none;rounded=0;orthogonalLoop=1;jettySize=auto;html=1;exitX=0;exitY=0.75;exitDx=0;exitDy=0;entryX=1;entryY=0.5;entryDx=0;entryDy=0;" edge="1" parent="WIyWlLk6GJQsqaUBKTNV-1" source="m1X8HX1gUMQzAYCHZsaK-0" target="Zs0k1_6YK3kXZUN5zw4k-58">
          <mxGeometry relative="1" as="geometry" />
        </mxCell>
        <mxCell id="m1X8HX1gUMQzAYCHZsaK-59" style="edgeStyle=none;rounded=0;orthogonalLoop=1;jettySize=auto;html=1;exitX=0;exitY=0.5;exitDx=0;exitDy=0;entryX=1;entryY=0.5;entryDx=0;entryDy=0;" edge="1" parent="WIyWlLk6GJQsqaUBKTNV-1" source="m1X8HX1gUMQzAYCHZsaK-0" target="Zs0k1_6YK3kXZUN5zw4k-59">
          <mxGeometry relative="1" as="geometry" />
        </mxCell>
        <mxCell id="m1X8HX1gUMQzAYCHZsaK-60" style="edgeStyle=none;rounded=0;orthogonalLoop=1;jettySize=auto;html=1;exitX=0;exitY=0.25;exitDx=0;exitDy=0;entryX=1;entryY=1;entryDx=0;entryDy=0;" edge="1" parent="WIyWlLk6GJQsqaUBKTNV-1" source="m1X8HX1gUMQzAYCHZsaK-0" target="Zs0k1_6YK3kXZUN5zw4k-60">
          <mxGeometry relative="1" as="geometry" />
        </mxCell>
        <mxCell id="m1X8HX1gUMQzAYCHZsaK-61" style="edgeStyle=none;rounded=0;orthogonalLoop=1;jettySize=auto;html=1;exitX=0.25;exitY=0;exitDx=0;exitDy=0;entryX=0.5;entryY=1;entryDx=0;entryDy=0;" edge="1" parent="WIyWlLk6GJQsqaUBKTNV-1" source="m1X8HX1gUMQzAYCHZsaK-0" target="m1X8HX1gUMQzAYCHZsaK-2">
          <mxGeometry relative="1" as="geometry" />
        </mxCell>
        <mxCell id="m1X8HX1gUMQzAYCHZsaK-62" style="edgeStyle=none;rounded=0;orthogonalLoop=1;jettySize=auto;html=1;exitX=0.5;exitY=0;exitDx=0;exitDy=0;entryX=0.5;entryY=1;entryDx=0;entryDy=0;" edge="1" parent="WIyWlLk6GJQsqaUBKTNV-1" source="m1X8HX1gUMQzAYCHZsaK-0" target="Zs0k1_6YK3kXZUN5zw4k-61">
          <mxGeometry relative="1" as="geometry" />
        </mxCell>
        <mxCell id="m1X8HX1gUMQzAYCHZsaK-63" style="edgeStyle=none;rounded=0;orthogonalLoop=1;jettySize=auto;html=1;exitX=0.75;exitY=0;exitDx=0;exitDy=0;entryX=0.5;entryY=1;entryDx=0;entryDy=0;" edge="1" parent="WIyWlLk6GJQsqaUBKTNV-1" source="m1X8HX1gUMQzAYCHZsaK-0" target="m1X8HX1gUMQzAYCHZsaK-3">
          <mxGeometry relative="1" as="geometry" />
        </mxCell>
        <mxCell id="m1X8HX1gUMQzAYCHZsaK-64" style="edgeStyle=none;rounded=0;orthogonalLoop=1;jettySize=auto;html=1;exitX=1;exitY=0.25;exitDx=0;exitDy=0;entryX=0;entryY=1;entryDx=0;entryDy=0;" edge="1" parent="WIyWlLk6GJQsqaUBKTNV-1" source="m1X8HX1gUMQzAYCHZsaK-0" target="Zs0k1_6YK3kXZUN5zw4k-62">
          <mxGeometry relative="1" as="geometry" />
        </mxCell>
        <mxCell id="m1X8HX1gUMQzAYCHZsaK-65" style="edgeStyle=none;rounded=0;orthogonalLoop=1;jettySize=auto;html=1;exitX=1;exitY=0.5;exitDx=0;exitDy=0;entryX=0;entryY=0.5;entryDx=0;entryDy=0;" edge="1" parent="WIyWlLk6GJQsqaUBKTNV-1" source="m1X8HX1gUMQzAYCHZsaK-0" target="Zs0k1_6YK3kXZUN5zw4k-63">
          <mxGeometry relative="1" as="geometry" />
        </mxCell>
        <mxCell id="m1X8HX1gUMQzAYCHZsaK-66" style="edgeStyle=none;rounded=0;orthogonalLoop=1;jettySize=auto;html=1;exitX=1;exitY=0.75;exitDx=0;exitDy=0;entryX=0;entryY=0.5;entryDx=0;entryDy=0;" edge="1" parent="WIyWlLk6GJQsqaUBKTNV-1" source="m1X8HX1gUMQzAYCHZsaK-0" target="m1X8HX1gUMQzAYCHZsaK-4">
          <mxGeometry relative="1" as="geometry" />
        </mxCell>
        <mxCell id="m1X8HX1gUMQzAYCHZsaK-100" style="edgeStyle=orthogonalEdgeStyle;rounded=0;orthogonalLoop=1;jettySize=auto;html=1;exitX=0.5;exitY=1;exitDx=0;exitDy=0;entryX=0;entryY=0.5;entryDx=0;entryDy=0;" edge="1" parent="WIyWlLk6GJQsqaUBKTNV-1" source="m1X8HX1gUMQzAYCHZsaK-0" target="m1X8HX1gUMQzAYCHZsaK-108">
          <mxGeometry relative="1" as="geometry">
            <mxPoint x="440" y="410" as="targetPoint" />
          </mxGeometry>
        </mxCell>
        <mxCell id="m1X8HX1gUMQzAYCHZsaK-129" style="edgeStyle=orthogonalEdgeStyle;rounded=0;orthogonalLoop=1;jettySize=auto;html=1;exitX=0.75;exitY=1;exitDx=0;exitDy=0;entryX=0;entryY=0.5;entryDx=0;entryDy=0;" edge="1" parent="WIyWlLk6GJQsqaUBKTNV-1" source="m1X8HX1gUMQzAYCHZsaK-0" target="m1X8HX1gUMQzAYCHZsaK-1">
          <mxGeometry relative="1" as="geometry" />
        </mxCell>
        <mxCell id="m1X8HX1gUMQzAYCHZsaK-146" style="edgeStyle=orthogonalEdgeStyle;rounded=0;orthogonalLoop=1;jettySize=auto;html=1;exitX=0.5;exitY=1;exitDx=0;exitDy=0;" edge="1" parent="WIyWlLk6GJQsqaUBKTNV-1" source="m1X8HX1gUMQzAYCHZsaK-156" target="m1X8HX1gUMQzAYCHZsaK-123">
          <mxGeometry relative="1" as="geometry" />
        </mxCell>
        <mxCell id="m1X8HX1gUMQzAYCHZsaK-0" value="SINH_VIEN" style="rounded=0;whiteSpace=wrap;html=1;" vertex="1" parent="WIyWlLk6GJQsqaUBKTNV-1">
          <mxGeometry x="260" y="230" width="120" height="60" as="geometry" />
        </mxCell>
        <mxCell id="m1X8HX1gUMQzAYCHZsaK-131" style="edgeStyle=orthogonalEdgeStyle;rounded=0;orthogonalLoop=1;jettySize=auto;html=1;exitX=1;exitY=0.5;exitDx=0;exitDy=0;" edge="1" parent="WIyWlLk6GJQsqaUBKTNV-1" source="m1X8HX1gUMQzAYCHZsaK-1" target="m1X8HX1gUMQzAYCHZsaK-108">
          <mxGeometry relative="1" as="geometry" />
        </mxCell>
        <mxCell id="m1X8HX1gUMQzAYCHZsaK-1" value="Lop_Truong" style="rhombus;whiteSpace=wrap;html=1;" vertex="1" parent="WIyWlLk6GJQsqaUBKTNV-1">
          <mxGeometry x="425" y="310" width="120" height="60" as="geometry" />
        </mxCell>
        <mxCell id="m1X8HX1gUMQzAYCHZsaK-2" value="Gioi_Tinh" style="ellipse;whiteSpace=wrap;html=1;" vertex="1" parent="WIyWlLk6GJQsqaUBKTNV-1">
          <mxGeometry x="230" y="150" width="85" height="50" as="geometry" />
        </mxCell>
        <mxCell id="m1X8HX1gUMQzAYCHZsaK-3" value="Dia_Chi" style="ellipse;whiteSpace=wrap;html=1;" vertex="1" parent="WIyWlLk6GJQsqaUBKTNV-1">
          <mxGeometry x="330" y="150" width="85" height="50" as="geometry" />
        </mxCell>
        <mxCell id="m1X8HX1gUMQzAYCHZsaK-4" value="Status" style="ellipse;whiteSpace=wrap;html=1;" vertex="1" parent="WIyWlLk6GJQsqaUBKTNV-1">
          <mxGeometry x="430" y="250" width="85" height="50" as="geometry" />
        </mxCell>
        <mxCell id="m1X8HX1gUMQzAYCHZsaK-34" value="MaGV" style="ellipse;whiteSpace=wrap;html=1;" vertex="1" parent="WIyWlLk6GJQsqaUBKTNV-1">
          <mxGeometry x="650" y="250" width="85" height="50" as="geometry" />
        </mxCell>
        <mxCell id="m1X8HX1gUMQzAYCHZsaK-36" value="Ho_Ten" style="ellipse;whiteSpace=wrap;html=1;" vertex="1" parent="WIyWlLk6GJQsqaUBKTNV-1">
          <mxGeometry x="620" y="200" width="85" height="50" as="geometry" />
        </mxCell>
        <mxCell id="m1X8HX1gUMQzAYCHZsaK-38" value="Ngay_Sinh" style="ellipse;whiteSpace=wrap;html=1;" vertex="1" parent="WIyWlLk6GJQsqaUBKTNV-1">
          <mxGeometry x="650" y="150" width="85" height="50" as="geometry" />
        </mxCell>
        <mxCell id="m1X8HX1gUMQzAYCHZsaK-40" value="Que_quan" style="ellipse;whiteSpace=wrap;html=1;" vertex="1" parent="WIyWlLk6GJQsqaUBKTNV-1">
          <mxGeometry x="797.5" y="100" width="85" height="50" as="geometry" />
        </mxCell>
        <mxCell id="m1X8HX1gUMQzAYCHZsaK-42" value="Email" style="ellipse;whiteSpace=wrap;html=1;" vertex="1" parent="WIyWlLk6GJQsqaUBKTNV-1">
          <mxGeometry x="950" y="150" width="85" height="50" as="geometry" />
        </mxCell>
        <mxCell id="m1X8HX1gUMQzAYCHZsaK-44" value="SDT" style="ellipse;whiteSpace=wrap;html=1;" vertex="1" parent="WIyWlLk6GJQsqaUBKTNV-1">
          <mxGeometry x="980" y="200" width="85" height="50" as="geometry" />
        </mxCell>
        <mxCell id="m1X8HX1gUMQzAYCHZsaK-67" style="edgeStyle=none;rounded=0;orthogonalLoop=1;jettySize=auto;html=1;exitX=0;exitY=0.75;exitDx=0;exitDy=0;entryX=1;entryY=0.5;entryDx=0;entryDy=0;" edge="1" parent="WIyWlLk6GJQsqaUBKTNV-1" source="m1X8HX1gUMQzAYCHZsaK-45" target="m1X8HX1gUMQzAYCHZsaK-34">
          <mxGeometry relative="1" as="geometry" />
        </mxCell>
        <mxCell id="m1X8HX1gUMQzAYCHZsaK-68" style="edgeStyle=none;rounded=0;orthogonalLoop=1;jettySize=auto;html=1;exitX=0;exitY=0.5;exitDx=0;exitDy=0;entryX=1;entryY=0.5;entryDx=0;entryDy=0;" edge="1" parent="WIyWlLk6GJQsqaUBKTNV-1" source="m1X8HX1gUMQzAYCHZsaK-45" target="m1X8HX1gUMQzAYCHZsaK-36">
          <mxGeometry relative="1" as="geometry" />
        </mxCell>
        <mxCell id="m1X8HX1gUMQzAYCHZsaK-69" style="edgeStyle=none;rounded=0;orthogonalLoop=1;jettySize=auto;html=1;exitX=0;exitY=0.25;exitDx=0;exitDy=0;entryX=1;entryY=1;entryDx=0;entryDy=0;" edge="1" parent="WIyWlLk6GJQsqaUBKTNV-1" source="m1X8HX1gUMQzAYCHZsaK-45" target="m1X8HX1gUMQzAYCHZsaK-38">
          <mxGeometry relative="1" as="geometry" />
        </mxCell>
        <mxCell id="m1X8HX1gUMQzAYCHZsaK-70" style="edgeStyle=none;rounded=0;orthogonalLoop=1;jettySize=auto;html=1;exitX=0.25;exitY=0;exitDx=0;exitDy=0;entryX=0.5;entryY=1;entryDx=0;entryDy=0;" edge="1" parent="WIyWlLk6GJQsqaUBKTNV-1" source="m1X8HX1gUMQzAYCHZsaK-45" target="m1X8HX1gUMQzAYCHZsaK-47">
          <mxGeometry relative="1" as="geometry" />
        </mxCell>
        <mxCell id="m1X8HX1gUMQzAYCHZsaK-71" style="edgeStyle=none;rounded=0;orthogonalLoop=1;jettySize=auto;html=1;exitX=0.5;exitY=0;exitDx=0;exitDy=0;entryX=0.5;entryY=1;entryDx=0;entryDy=0;" edge="1" parent="WIyWlLk6GJQsqaUBKTNV-1" source="m1X8HX1gUMQzAYCHZsaK-45" target="m1X8HX1gUMQzAYCHZsaK-40">
          <mxGeometry relative="1" as="geometry" />
        </mxCell>
        <mxCell id="m1X8HX1gUMQzAYCHZsaK-72" style="edgeStyle=none;rounded=0;orthogonalLoop=1;jettySize=auto;html=1;exitX=0.75;exitY=0;exitDx=0;exitDy=0;entryX=0.5;entryY=1;entryDx=0;entryDy=0;" edge="1" parent="WIyWlLk6GJQsqaUBKTNV-1" source="m1X8HX1gUMQzAYCHZsaK-45" target="m1X8HX1gUMQzAYCHZsaK-49">
          <mxGeometry relative="1" as="geometry" />
        </mxCell>
        <mxCell id="m1X8HX1gUMQzAYCHZsaK-73" style="edgeStyle=none;rounded=0;orthogonalLoop=1;jettySize=auto;html=1;exitX=1;exitY=0.25;exitDx=0;exitDy=0;entryX=0;entryY=1;entryDx=0;entryDy=0;" edge="1" parent="WIyWlLk6GJQsqaUBKTNV-1" source="m1X8HX1gUMQzAYCHZsaK-45" target="m1X8HX1gUMQzAYCHZsaK-42">
          <mxGeometry relative="1" as="geometry" />
        </mxCell>
        <mxCell id="m1X8HX1gUMQzAYCHZsaK-74" style="edgeStyle=none;rounded=0;orthogonalLoop=1;jettySize=auto;html=1;exitX=1;exitY=0.5;exitDx=0;exitDy=0;entryX=0;entryY=0.5;entryDx=0;entryDy=0;" edge="1" parent="WIyWlLk6GJQsqaUBKTNV-1" source="m1X8HX1gUMQzAYCHZsaK-45" target="m1X8HX1gUMQzAYCHZsaK-44">
          <mxGeometry relative="1" as="geometry" />
        </mxCell>
        <mxCell id="m1X8HX1gUMQzAYCHZsaK-75" style="edgeStyle=none;rounded=0;orthogonalLoop=1;jettySize=auto;html=1;exitX=1;exitY=0.75;exitDx=0;exitDy=0;entryX=0;entryY=0.5;entryDx=0;entryDy=0;" edge="1" parent="WIyWlLk6GJQsqaUBKTNV-1" source="m1X8HX1gUMQzAYCHZsaK-45" target="m1X8HX1gUMQzAYCHZsaK-51">
          <mxGeometry relative="1" as="geometry" />
        </mxCell>
        <mxCell id="m1X8HX1gUMQzAYCHZsaK-98" style="edgeStyle=orthogonalEdgeStyle;rounded=0;orthogonalLoop=1;jettySize=auto;html=1;exitX=0.5;exitY=1;exitDx=0;exitDy=0;entryX=1;entryY=0.5;entryDx=0;entryDy=0;" edge="1" parent="WIyWlLk6GJQsqaUBKTNV-1" source="m1X8HX1gUMQzAYCHZsaK-45" target="m1X8HX1gUMQzAYCHZsaK-108">
          <mxGeometry relative="1" as="geometry">
            <mxPoint x="720" y="410" as="targetPoint" />
          </mxGeometry>
        </mxCell>
        <mxCell id="m1X8HX1gUMQzAYCHZsaK-119" style="edgeStyle=none;rounded=0;orthogonalLoop=1;jettySize=auto;html=1;exitX=0.75;exitY=1;exitDx=0;exitDy=0;entryX=0.5;entryY=0;entryDx=0;entryDy=0;" edge="1" parent="WIyWlLk6GJQsqaUBKTNV-1" source="m1X8HX1gUMQzAYCHZsaK-45" target="m1X8HX1gUMQzAYCHZsaK-116">
          <mxGeometry relative="1" as="geometry" />
        </mxCell>
        <mxCell id="m1X8HX1gUMQzAYCHZsaK-45" value="GIAO_VIEN" style="rounded=0;whiteSpace=wrap;html=1;" vertex="1" parent="WIyWlLk6GJQsqaUBKTNV-1">
          <mxGeometry x="780" y="230" width="120" height="60" as="geometry" />
        </mxCell>
        <mxCell id="m1X8HX1gUMQzAYCHZsaK-47" value="Gioi_Tinh" style="ellipse;whiteSpace=wrap;html=1;" vertex="1" parent="WIyWlLk6GJQsqaUBKTNV-1">
          <mxGeometry x="750" y="150" width="85" height="50" as="geometry" />
        </mxCell>
        <mxCell id="m1X8HX1gUMQzAYCHZsaK-49" value="Dia_Chi" style="ellipse;whiteSpace=wrap;html=1;" vertex="1" parent="WIyWlLk6GJQsqaUBKTNV-1">
          <mxGeometry x="850" y="150" width="85" height="50" as="geometry" />
        </mxCell>
        <mxCell id="m1X8HX1gUMQzAYCHZsaK-51" value="Trinh_Do" style="ellipse;whiteSpace=wrap;html=1;" vertex="1" parent="WIyWlLk6GJQsqaUBKTNV-1">
          <mxGeometry x="950" y="250" width="85" height="50" as="geometry" />
        </mxCell>
        <mxCell id="m1X8HX1gUMQzAYCHZsaK-76" style="edgeStyle=none;rounded=0;orthogonalLoop=1;jettySize=auto;html=1;exitX=0.25;exitY=1;exitDx=0;exitDy=0;entryX=0.5;entryY=0;entryDx=0;entryDy=0;" edge="1" parent="WIyWlLk6GJQsqaUBKTNV-1" source="m1X8HX1gUMQzAYCHZsaK-52" target="m1X8HX1gUMQzAYCHZsaK-53">
          <mxGeometry relative="1" as="geometry" />
        </mxCell>
        <mxCell id="m1X8HX1gUMQzAYCHZsaK-77" style="edgeStyle=none;rounded=0;orthogonalLoop=1;jettySize=auto;html=1;exitX=0.75;exitY=1;exitDx=0;exitDy=0;entryX=0.5;entryY=0;entryDx=0;entryDy=0;" edge="1" parent="WIyWlLk6GJQsqaUBKTNV-1" source="m1X8HX1gUMQzAYCHZsaK-52" target="m1X8HX1gUMQzAYCHZsaK-54">
          <mxGeometry relative="1" as="geometry" />
        </mxCell>
        <mxCell id="m1X8HX1gUMQzAYCHZsaK-52" value="KHOA" style="rounded=0;whiteSpace=wrap;html=1;" vertex="1" parent="WIyWlLk6GJQsqaUBKTNV-1">
          <mxGeometry x="780" y="520" width="120" height="60" as="geometry" />
        </mxCell>
        <mxCell id="m1X8HX1gUMQzAYCHZsaK-53" value="Ma_Khoa" style="ellipse;whiteSpace=wrap;html=1;" vertex="1" parent="WIyWlLk6GJQsqaUBKTNV-1">
          <mxGeometry x="712.5" y="610" width="85" height="50" as="geometry" />
        </mxCell>
        <mxCell id="m1X8HX1gUMQzAYCHZsaK-54" value="Ten_Khoa" style="ellipse;whiteSpace=wrap;html=1;" vertex="1" parent="WIyWlLk6GJQsqaUBKTNV-1">
          <mxGeometry x="882.5" y="610" width="85" height="50" as="geometry" />
        </mxCell>
        <mxCell id="m1X8HX1gUMQzAYCHZsaK-101" value="n" style="text;html=1;strokeColor=none;fillColor=none;align=center;verticalAlign=middle;whiteSpace=wrap;rounded=0;" vertex="1" parent="WIyWlLk6GJQsqaUBKTNV-1">
          <mxGeometry x="300" y="290" width="60" height="30" as="geometry" />
        </mxCell>
        <mxCell id="m1X8HX1gUMQzAYCHZsaK-102" value="1" style="text;html=1;strokeColor=none;fillColor=none;align=center;verticalAlign=middle;whiteSpace=wrap;rounded=0;" vertex="1" parent="WIyWlLk6GJQsqaUBKTNV-1">
          <mxGeometry x="472.5" y="380" width="60" height="30" as="geometry" />
        </mxCell>
        <mxCell id="m1X8HX1gUMQzAYCHZsaK-103" value="n" style="text;html=1;strokeColor=none;fillColor=none;align=center;verticalAlign=middle;whiteSpace=wrap;rounded=0;" vertex="1" parent="WIyWlLk6GJQsqaUBKTNV-1">
          <mxGeometry x="570" y="440" width="60" height="30" as="geometry" />
        </mxCell>
        <mxCell id="m1X8HX1gUMQzAYCHZsaK-104" value="1" style="text;html=1;strokeColor=none;fillColor=none;align=center;verticalAlign=middle;whiteSpace=wrap;rounded=0;" vertex="1" parent="WIyWlLk6GJQsqaUBKTNV-1">
          <mxGeometry x="790" y="290" width="60" height="30" as="geometry" />
        </mxCell>
        <mxCell id="m1X8HX1gUMQzAYCHZsaK-106" value="1" style="text;html=1;strokeColor=none;fillColor=none;align=center;verticalAlign=middle;whiteSpace=wrap;rounded=0;" vertex="1" parent="WIyWlLk6GJQsqaUBKTNV-1">
          <mxGeometry x="640" y="380" width="60" height="30" as="geometry" />
        </mxCell>
        <mxCell id="m1X8HX1gUMQzAYCHZsaK-107" value="1" style="text;html=1;strokeColor=none;fillColor=none;align=center;verticalAlign=middle;whiteSpace=wrap;rounded=0;" vertex="1" parent="WIyWlLk6GJQsqaUBKTNV-1">
          <mxGeometry x="730" y="506" width="60" height="30" as="geometry" />
        </mxCell>
        <mxCell id="m1X8HX1gUMQzAYCHZsaK-115" style="edgeStyle=orthogonalEdgeStyle;rounded=0;orthogonalLoop=1;jettySize=auto;html=1;exitX=0.5;exitY=1;exitDx=0;exitDy=0;entryX=0;entryY=0.25;entryDx=0;entryDy=0;" edge="1" parent="WIyWlLk6GJQsqaUBKTNV-1" source="m1X8HX1gUMQzAYCHZsaK-108" target="m1X8HX1gUMQzAYCHZsaK-52">
          <mxGeometry relative="1" as="geometry" />
        </mxCell>
        <mxCell id="m1X8HX1gUMQzAYCHZsaK-108" value="LOP_HOC" style="rounded=0;whiteSpace=wrap;html=1;" vertex="1" parent="WIyWlLk6GJQsqaUBKTNV-1">
          <mxGeometry x="525" y="380" width="120" height="60" as="geometry" />
        </mxCell>
        <mxCell id="m1X8HX1gUMQzAYCHZsaK-109" value="La_SV" style="rhombus;whiteSpace=wrap;html=1;" vertex="1" parent="WIyWlLk6GJQsqaUBKTNV-1">
          <mxGeometry x="330" y="380" width="120" height="60" as="geometry" />
        </mxCell>
        <mxCell id="m1X8HX1gUMQzAYCHZsaK-110" value="Chu_nhiem" style="rhombus;whiteSpace=wrap;html=1;" vertex="1" parent="WIyWlLk6GJQsqaUBKTNV-1">
          <mxGeometry x="705" y="380" width="120" height="60" as="geometry" />
        </mxCell>
        <mxCell id="m1X8HX1gUMQzAYCHZsaK-112" value="La_Lop" style="rhombus;whiteSpace=wrap;html=1;" vertex="1" parent="WIyWlLk6GJQsqaUBKTNV-1">
          <mxGeometry x="525" y="465" width="120" height="60" as="geometry" />
        </mxCell>
        <mxCell id="m1X8HX1gUMQzAYCHZsaK-120" style="edgeStyle=none;rounded=0;orthogonalLoop=1;jettySize=auto;html=1;exitX=0.5;exitY=1;exitDx=0;exitDy=0;entryX=0.5;entryY=0;entryDx=0;entryDy=0;" edge="1" parent="WIyWlLk6GJQsqaUBKTNV-1" source="m1X8HX1gUMQzAYCHZsaK-116" target="m1X8HX1gUMQzAYCHZsaK-52">
          <mxGeometry relative="1" as="geometry" />
        </mxCell>
        <mxCell id="m1X8HX1gUMQzAYCHZsaK-116" value="La_NV" style="rhombus;whiteSpace=wrap;html=1;" vertex="1" parent="WIyWlLk6GJQsqaUBKTNV-1">
          <mxGeometry x="932.5" y="380" width="120" height="60" as="geometry" />
        </mxCell>
        <mxCell id="m1X8HX1gUMQzAYCHZsaK-121" value="1" style="text;html=1;strokeColor=none;fillColor=none;align=center;verticalAlign=middle;whiteSpace=wrap;rounded=0;" vertex="1" parent="WIyWlLk6GJQsqaUBKTNV-1">
          <mxGeometry x="800" y="490" width="60" height="30" as="geometry" />
        </mxCell>
        <mxCell id="m1X8HX1gUMQzAYCHZsaK-122" value="n" style="text;html=1;strokeColor=none;fillColor=none;align=center;verticalAlign=middle;whiteSpace=wrap;rounded=0;" vertex="1" parent="WIyWlLk6GJQsqaUBKTNV-1">
          <mxGeometry x="882.5" y="290" width="60" height="30" as="geometry" />
        </mxCell>
        <mxCell id="m1X8HX1gUMQzAYCHZsaK-140" style="edgeStyle=none;rounded=0;orthogonalLoop=1;jettySize=auto;html=1;exitX=0.25;exitY=0;exitDx=0;exitDy=0;entryX=0.5;entryY=1;entryDx=0;entryDy=0;" edge="1" parent="WIyWlLk6GJQsqaUBKTNV-1" source="m1X8HX1gUMQzAYCHZsaK-123" target="m1X8HX1gUMQzAYCHZsaK-124">
          <mxGeometry relative="1" as="geometry" />
        </mxCell>
        <mxCell id="m1X8HX1gUMQzAYCHZsaK-141" style="edgeStyle=none;rounded=0;orthogonalLoop=1;jettySize=auto;html=1;exitX=0;exitY=0.25;exitDx=0;exitDy=0;entryX=1;entryY=0.5;entryDx=0;entryDy=0;" edge="1" parent="WIyWlLk6GJQsqaUBKTNV-1" source="m1X8HX1gUMQzAYCHZsaK-123" target="m1X8HX1gUMQzAYCHZsaK-125">
          <mxGeometry relative="1" as="geometry" />
        </mxCell>
        <mxCell id="m1X8HX1gUMQzAYCHZsaK-142" style="edgeStyle=none;rounded=0;orthogonalLoop=1;jettySize=auto;html=1;exitX=0;exitY=0.75;exitDx=0;exitDy=0;entryX=1;entryY=0.5;entryDx=0;entryDy=0;" edge="1" parent="WIyWlLk6GJQsqaUBKTNV-1" source="m1X8HX1gUMQzAYCHZsaK-123" target="m1X8HX1gUMQzAYCHZsaK-126">
          <mxGeometry relative="1" as="geometry" />
        </mxCell>
        <mxCell id="m1X8HX1gUMQzAYCHZsaK-143" style="edgeStyle=none;rounded=0;orthogonalLoop=1;jettySize=auto;html=1;exitX=0.25;exitY=1;exitDx=0;exitDy=0;entryX=0.5;entryY=0;entryDx=0;entryDy=0;" edge="1" parent="WIyWlLk6GJQsqaUBKTNV-1" source="m1X8HX1gUMQzAYCHZsaK-123" target="m1X8HX1gUMQzAYCHZsaK-127">
          <mxGeometry relative="1" as="geometry" />
        </mxCell>
        <mxCell id="m1X8HX1gUMQzAYCHZsaK-155" style="edgeStyle=orthogonalEdgeStyle;rounded=0;orthogonalLoop=1;jettySize=auto;html=1;exitX=1;exitY=0.5;exitDx=0;exitDy=0;entryX=0;entryY=0.5;entryDx=0;entryDy=0;" edge="1" parent="WIyWlLk6GJQsqaUBKTNV-1" source="m1X8HX1gUMQzAYCHZsaK-123" target="m1X8HX1gUMQzAYCHZsaK-152">
          <mxGeometry relative="1" as="geometry" />
        </mxCell>
        <mxCell id="m1X8HX1gUMQzAYCHZsaK-123" value="HOC_PHAN" style="rounded=0;whiteSpace=wrap;html=1;" vertex="1" parent="WIyWlLk6GJQsqaUBKTNV-1">
          <mxGeometry x="140" y="536" width="120" height="60" as="geometry" />
        </mxCell>
        <mxCell id="m1X8HX1gUMQzAYCHZsaK-124" value="Ma_HP" style="ellipse;whiteSpace=wrap;html=1;" vertex="1" parent="WIyWlLk6GJQsqaUBKTNV-1">
          <mxGeometry x="97.5" y="470" width="85" height="50" as="geometry" />
        </mxCell>
        <mxCell id="m1X8HX1gUMQzAYCHZsaK-125" value="Ten_HP" style="ellipse;whiteSpace=wrap;html=1;" vertex="1" parent="WIyWlLk6GJQsqaUBKTNV-1">
          <mxGeometry x="37.5" y="520" width="85" height="50" as="geometry" />
        </mxCell>
        <mxCell id="m1X8HX1gUMQzAYCHZsaK-126" value="So_TC" style="ellipse;whiteSpace=wrap;html=1;" vertex="1" parent="WIyWlLk6GJQsqaUBKTNV-1">
          <mxGeometry x="37.5" y="570" width="85" height="50" as="geometry" />
        </mxCell>
        <mxCell id="m1X8HX1gUMQzAYCHZsaK-127" value="HP_TienQuyet" style="ellipse;whiteSpace=wrap;html=1;" vertex="1" parent="WIyWlLk6GJQsqaUBKTNV-1">
          <mxGeometry x="97.5" y="620" width="85" height="50" as="geometry" />
        </mxCell>
        <mxCell id="m1X8HX1gUMQzAYCHZsaK-132" value="1" style="text;html=1;strokeColor=none;fillColor=none;align=center;verticalAlign=middle;whiteSpace=wrap;rounded=0;" vertex="1" parent="WIyWlLk6GJQsqaUBKTNV-1">
          <mxGeometry x="335" y="290" width="60" height="30" as="geometry" />
        </mxCell>
        <mxCell id="m1X8HX1gUMQzAYCHZsaK-133" value="1" style="text;html=1;strokeColor=none;fillColor=none;align=center;verticalAlign=middle;whiteSpace=wrap;rounded=0;" vertex="1" parent="WIyWlLk6GJQsqaUBKTNV-1">
          <mxGeometry x="570" y="350" width="60" height="30" as="geometry" />
        </mxCell>
        <mxCell id="m1X8HX1gUMQzAYCHZsaK-147" value="n" style="text;html=1;strokeColor=none;fillColor=none;align=center;verticalAlign=middle;whiteSpace=wrap;rounded=0;" vertex="1" parent="WIyWlLk6GJQsqaUBKTNV-1">
          <mxGeometry x="242.5" y="290" width="60" height="30" as="geometry" />
        </mxCell>
        <mxCell id="m1X8HX1gUMQzAYCHZsaK-148" value="n" style="text;html=1;strokeColor=none;fillColor=none;align=center;verticalAlign=middle;whiteSpace=wrap;rounded=0;" vertex="1" parent="WIyWlLk6GJQsqaUBKTNV-1">
          <mxGeometry x="187" y="506" width="60" height="30" as="geometry" />
        </mxCell>
        <mxCell id="m1X8HX1gUMQzAYCHZsaK-153" style="edgeStyle=orthogonalEdgeStyle;rounded=0;orthogonalLoop=1;jettySize=auto;html=1;exitX=1;exitY=0.5;exitDx=0;exitDy=0;entryX=0;entryY=0.75;entryDx=0;entryDy=0;" edge="1" parent="WIyWlLk6GJQsqaUBKTNV-1" source="m1X8HX1gUMQzAYCHZsaK-152" target="m1X8HX1gUMQzAYCHZsaK-52">
          <mxGeometry relative="1" as="geometry" />
        </mxCell>
        <mxCell id="m1X8HX1gUMQzAYCHZsaK-152" value="La_HP" style="rhombus;whiteSpace=wrap;html=1;" vertex="1" parent="WIyWlLk6GJQsqaUBKTNV-1">
          <mxGeometry x="442.5" y="536" width="120" height="60" as="geometry" />
        </mxCell>
        <mxCell id="m1X8HX1gUMQzAYCHZsaK-157" value="" style="edgeStyle=orthogonalEdgeStyle;rounded=0;orthogonalLoop=1;jettySize=auto;html=1;exitX=0.25;exitY=1;exitDx=0;exitDy=0;" edge="1" parent="WIyWlLk6GJQsqaUBKTNV-1" source="m1X8HX1gUMQzAYCHZsaK-0" target="m1X8HX1gUMQzAYCHZsaK-156">
          <mxGeometry relative="1" as="geometry">
            <mxPoint x="290" y="290" as="sourcePoint" />
            <mxPoint x="200" y="536" as="targetPoint" />
          </mxGeometry>
        </mxCell>
        <mxCell id="m1X8HX1gUMQzAYCHZsaK-156" value="Dang_Ky" style="rhombus;whiteSpace=wrap;html=1;" vertex="1" parent="WIyWlLk6GJQsqaUBKTNV-1">
          <mxGeometry x="180" y="380" width="120" height="60" as="geometry" />
        </mxCell>
        <mxCell id="m1X8HX1gUMQzAYCHZsaK-158" value="n" style="text;html=1;strokeColor=none;fillColor=none;align=center;verticalAlign=middle;whiteSpace=wrap;rounded=0;" vertex="1" parent="WIyWlLk6GJQsqaUBKTNV-1">
          <mxGeometry x="242.5" y="536" width="60" height="30" as="geometry" />
        </mxCell>
        <mxCell id="m1X8HX1gUMQzAYCHZsaK-159" value="n" style="text;html=1;strokeColor=none;fillColor=none;align=center;verticalAlign=middle;whiteSpace=wrap;rounded=0;" vertex="1" parent="WIyWlLk6GJQsqaUBKTNV-1">
          <mxGeometry x="735" y="536" width="60" height="30" as="geometry" />
        </mxCell>
      </root>
    </mxGraphModel>
  </diagram>
</mxfile>
